<?xml version="1.0" encoding="UTF-8"?>
<svg width="180px" height="40px" viewBox="0 0 180 40" version="1.1" xmlns="http://www.w3.org/2000/svg" xmlns:xlink="http://www.w3.org/1999/xlink">
    <!-- Generator: Sketch 52.6 (67491) - http://www.bohemiancoding.com/sketch -->
    <title>Artboard Copy 3</title>
    <desc>Created with Sketch.</desc>
    <g id="Artboard-Copy-3" stroke="none" stroke-width="1" fill="none" fill-rule="evenodd">
        <g id="Group" transform="translate(1.000000, 5.000000)">
            <text id="AutoDapp" font-family="Calibre-Semibold, Calibre" font-size="33" font-weight="500" fill="#FFFFFF">
                <tspan x="43" y="24">AutoDapp</tspan>
            </text>
            <g id="codepen-brands" fill="#68D391" fill-rule="nonzero">
                <path d="M31.4686573,7.91724362 L18.6718073,-2.74685453 C18.2350191,-3.08284198 17.7688637,-3.08591816 17.3280833,-2.74685453 L4.53123334,7.91724362 C4.20310898,8.19061367 4,8.67897468 4,9.16719897 L4,19.8312288 C4,20.3195214 4.20310898,20.8078141 4.53128802,21.0812525 L17.328138,31.7468545 C17.7649262,32.082842 18.2310816,32.0859182 18.671862,31.7468545 L31.468712,21.0812525 C31.7968363,20.8078824 32,20.3195214 32,19.8312288 L32,9.16719897 C31.9999453,8.67897468 31.7968363,8.19061367 31.4686573,7.91724362 Z M19.2030953,1.31555163 L28.6249675,9.16719897 L24.4218586,12.682865 L19.2030953,8.32733288 L19.2030953,1.31555163 Z M16.79685,1.31555163 L16.79685,8.32733288 L11.5780868,12.682865 L7.37497778,9.16719897 L16.79685,1.31555163 Z M6.4062453,11.9797181 L9.42187222,14.499248 L6.4062453,17.018778 L6.4062453,11.9797181 Z M16.79685,27.6829445 L7.37497778,19.8312971 L11.5780868,16.3156311 L16.79685,20.6711632 L16.79685,27.6829445 Z M17.9999727,18.0539474 L13.7499419,14.499248 L17.9999727,10.9445487 L22.2500034,14.499248 L17.9999727,18.0539474 Z M19.2030953,27.6829445 L19.2030953,20.6711632 L24.4218586,16.3156311 L28.6249675,19.8312971 L19.2030953,27.6829445 Z M29.5937,17.018778 L26.5780731,14.499248 L29.5937,11.9797181 L29.5937,17.018778 Z" id="Shape" transform="translate(18.000000, 14.500000) rotate(90.000000) translate(-18.000000, -14.500000) "></path>
            </g>
        </g>
    </g>
</svg>